<?xml version="1.0" encoding="UTF-8"?>
<svg id="Layer_1" data-name="Layer 1" xmlns="http://www.w3.org/2000/svg" viewBox="0 0 1137.53 1704.26">
  <defs>
    <style>
      .location {
        fill: #F2BE22;
      }
    </style>
  </defs>
  <path class="location" d="m1128.64,463.79c-20.86-103.72-63.86-196.28-136.63-274.59-54.97-59.16-117.92-106.51-191.76-139.16-62.12-27.46-126.94-45.32-194.85-49.09-50.34-2.81-100.62.7-150.33,10.06-97.42,18.32-182.35,62.4-256.49,127.09-41.62,36.33-79.06,76.71-108.08,124.52-33.93,55.82-60.61,114.57-75.95,178.03C1.06,496.49-2.64,553.29,1.76,610.7c4.12,54.12,15.53,106.48,34.09,157.45,15.35,42.14,37.62,80.74,59.22,119.77,71.18,128.55,142.05,257.27,213.12,385.89,65.17,117.94,130.42,235.84,195.67,353.72,10.72,19.38,20.91,39.08,32.56,57.89,14.9,24.07,45.65,25.14,63.01,2.77,4.31-5.53,7.58-11.89,11-18.04,31.65-57.3,63.16-114.65,94.87-171.93,42.41-76.64,84.97-153.18,127.4-229.8,38.42-69.33,76.78-138.66,115.11-208.02,42.52-76.95,86.19-153.27,127.13-231.05,42.71-81.15,63.38-168.28,62.44-271.39.85-24.31-1.74-59.51-8.73-94.18Zm-558.5,388.37c-167.82.06-285.37-137.52-284.1-284.58-1.02-152.29,125.43-281.84,280.88-282.67,158.93-.87,285.39,126.37,285.59,284.06.22,166.16-133.95,283.13-282.38,283.19Z"/>
</svg>