<?xml version="1.0" encoding="UTF-8"?>
<svg id="Layer_1" data-name="Layer 1" xmlns="http://www.w3.org/2000/svg" viewBox="0 0 1235.3 1519.2">
  <style>
      .report {
        fill: #757575;
      }
  </style>
  <path class="report" d="m69.33,1519.2c-29.68-12.65-42.77-34.54-42.73-67.33.45-402.6.1-805.2.57-1207.81.05-43.51-5.5-85.13-21.03-126.06C-12.23,69.61,12.11,19.51,59.52,4.67c32.89-10.3,63.04-3.6,87.61,20.55,23.63,23.21,31.06,51.98,22.6,84.34-1.5,5.72-3.46,11.35-5.67,16.83-12.34,30.62-17.45,62.25-17.42,95.39.34,405.07.22,810.14.22,1215.22,0,4.94.03,9.88-.01,14.82-.27,32.25-12.77,56.37-44.91,67.39h-32.6Z"/>
  <path class="report" d="m210.69,530.73c0-93.36-.5-186.73.21-280.09.36-46.81,19.49-83.55,62.2-106.65,74.53-40.3,153.13-63.14,238.57-57.1,43.34,3.06,84.13,15.87,123.41,34.19,55.64,25.95,107.02,59.48,160.27,89.65,83.61,47.38,168.4,50.22,255.45,10.77,38.35-17.38,74.9-37.79,109.52-61.73,9.34-6.46,18.76-12.82,28.36-18.9,10.21-6.46,20.96-12.4,33.12-5.35,11.78,6.83,13.38,18.63,13.38,30.94-.03,189.2.5,378.4-.42,567.59-.21,43.2-17.25,80.23-52.16,108.29-58.08,46.69-120.46,84.03-195,98.06-49.32,9.28-96.27.51-142.13-16.6-59.92-22.35-114.4-55.74-170.53-85.78-25.23-13.5-50.92-26.21-76.83-38.38-76.58-35.96-153.54-28.53-230.36-.7-27.87,10.1-55.07,21.79-80.86,36.62-11.11,6.39-22.5,12.49-34.3,17.46-21.24,8.96-37.57-.34-41.15-23-.99-6.29-.71-12.81-.72-19.22-.04-93.36-.03-186.73-.02-280.09Z"/>
</svg>