<?xml version="1.0" encoding="UTF-8"?>
<svg id="Layer_1" data-name="Layer 1" xmlns="http://www.w3.org/2000/svg" viewBox="0 0 1504.8 1506.43">
  <style>
      .time {
        fill: #F2BE22;
      }
  </style>
  <path class="time" d="m0,752.86C-1.55,340.68,336.81-.61,753.46,0c414.65.6,752.88,340.98,751.34,756.21-1.53,411.96-338.84,751.37-754.69,750.22C334.58,1505.27-1.9,1164.23,0,752.86Zm111.45-.26c-.12,353.59,286.37,641.77,638.4,642.17,354.86.4,642.43-286.18,643.31-640.07.87-351.73-284.15-642.39-639.45-642.92-354.75-.53-642.14,286.52-642.25,640.82Z"/>
  <path class="time" d="m703.37,520c0-78.93-.05-157.87.04-236.8.02-20.47,9.89-35.27,28.1-43.89,18.69-8.84,36.62-5.99,52.46,7.05,12.52,10.31,17.34,24.06,17.31,40.36-.21,144.42-.04,288.84-.32,433.26-.02,9.29,2.76,15.68,9.28,22.17,67.79,67.4,135.29,135.1,202.86,202.73,14.49,14.5,19.74,31.65,13.23,51.33-6.62,20.01-21.28,31.2-41.92,33.7-16.85,2.04-30.64-5-42.38-16.87-19.93-20.16-40.1-40.1-60.11-60.18-54.05-54.23-107.9-108.67-162.26-162.59-11.38-11.29-16.65-23.43-16.53-39.61.53-76.88.24-153.77.26-230.66Z"/>
</svg>