<?xml version="1.0" encoding="UTF-8"?>
<svg id="Layer_1" data-name="Layer 1" xmlns="http://www.w3.org/2000/svg" viewBox="0 0 1623.45 1768.95">
  <style>
      .date {
        fill: #F2BE22;
      }
    </style>
  <path class="date" d="m811.74,1768.7c-228.05,0-456.1-.37-684.15.24-61.61.17-114.57-46.51-125.15-102.07-1.56-8.2-2.37-16.49-2.37-24.83-.02-419.83-.21-839.66.22-1259.5.06-54.41,26.66-94.08,75.29-118.42,14.31-7.16,30.06-9.85,46.03-9.93,40.31-.19,80.63-.08,120.94-.09q7.19,0,7.21-7.01c0-29.5-.48-59.01.11-88.5,1.29-64.67,31.9-111.71,87.9-142.64,19.58-10.81,41.17-15.29,63.42-15.68,23.15-.41,46.31-.33,69.46-.07,39.91.44,74.32,14.75,103.59,41.78,27.59,25.48,44.62,56.5,49.46,93.93.81,6.26,1.44,12.56,1.43,18.92-.05,30.83,0,61.67,0,92.5,0,6.74.02,6.76,6.44,6.76,120.11,0,240.21,0,360.32,0,6.45,0,6.46-.02,6.46-6.75.01-30.5-.13-61,.06-91.5.41-65.86,45.47-127.71,107.9-148.31,14.33-4.73,29.12-7.13,44.17-7.3,22.82-.25,45.64-.23,68.46-.06,74.59.57,140.13,56.47,152.47,130.04,1.46,8.7,2.33,17.49,2.32,26.35-.04,30.33,0,60.67,0,91,0,6.51.02,6.53,6.69,6.53,38.81,0,77.63.45,116.44-.1,62.62-.88,118.18,49.15,125.47,110.85.76,6.43,1.06,12.96,1.07,19.44.05,418.17.11,836.33-.04,1254.5-.02,50.74-23.09,89.05-66.03,115.32-15.76,9.64-33.58,13.44-51.95,14.46-4.15.23-8.33.1-12.49.1-227.05,0-454.1,0-681.16,0Zm-.24-125.65c225.55,0,451.1,0,676.65-.01,9.87,0,9.07,1.21,9.07-9.15,0-330.33,0-660.66,0-990.99,0-1.33-.12-2.68.02-4,.4-3.85-1.11-5.67-5.1-5.18-1.15.14-2.33.02-3.5.02-451.27,0-902.54,0-1353.8,0-1.5,0-3.01.1-4.5,0-3.06-.22-4.25,1.25-4.08,4.17.08,1.33,0,2.67,0,4,0,330.99,0,661.99,0,992.99q0,8.15,8.08,8.15c225.72,0,451.43,0,677.15,0ZM375.88,302.67c0,45.66,0,91.33.01,136.99,0,3.33.01,6.67.27,9.99,1.09,13.97,12.22,25.17,26.22,25.38,23.31.35,46.64.35,69.96-.01,13.13-.2,24.54-10.48,26.17-22.69.64-4.77.95-9.63.95-14.44.05-89.33.03-178.66.06-267.99,0-4.84-.24-9.65-.81-14.45-1.68-14.13-12.59-24.58-26.85-24.75-22.82-.27-45.64-.25-68.46,0-13.28.14-23.49,8.7-26.67,21.54-1.01,4.08-.84,8.28-.84,12.44-.02,46,0,92-.01,137.99Zm871.71.56c0-45.66,0-91.33,0-136.99,0-3.16-.02-6.34-.23-9.49-.98-14.58-12.14-25.83-26.64-26.02-22.98-.31-45.98-.27-68.96,0-12.69.14-22.54,8.11-26.04,20.3-1.48,5.15-1.74,10.49-1.74,15.84,0,90.66-.01,181.33.04,271.99,0,4.32.33,8.67.96,12.94,1.9,12.89,12.58,23.02,25.6,23.23,23.48.38,46.98.37,70.46,0,12.78-.2,23.59-9.67,25.86-21.83.73-3.89.67-7.96.67-11.95.04-46,.03-92,.03-137.99Z"/>
</svg>