<?xml version="1.0" encoding="UTF-8"?>
<svg id="Layer_1" data-name="Layer 1" xmlns="http://www.w3.org/2000/svg" viewBox="0 0 1519.11 1519.11">
  <style>
      .upvote {
        fill: #1EA699;
      }
  </style>
  <path class="upvote" d="m759.55,0h2.53c2.16,3.16,5.07,5.64,7.75,8.32,247.03,247.06,494.08,494.1,741.12,741.15,2.83,2.83,5.85,5.5,8.15,8.82v2.53c-3.58.06-7.17.18-10.76.18-118.15,0-236.3,0-354.45.01-2.53,0-5.07-.09-7.59.08-4.18.29-4.99,1.16-5.22,5.48-.13,2.53-.05,5.06-.05,7.59,0,244.53,0,489.05-.02,733.58,0,3.79.35,7.6-.43,11.36H379.78c-.06-4.01-.18-8.01-.18-12.02,0-244.63,0-489.26,0-733.89,0-12.56.56-12.21-12.02-12.21-118.31.01-236.62.01-354.92,0-4.22,0-8.43-.12-12.65-.18,0-.84,0-1.69,0-2.53,3.68-1.49,5.95-4.66,8.61-7.32C256.12,503.5,503.6,256.02,751.08,8.53c2.83-2.83,5.65-5.69,8.47-8.53Z"/>
</svg>